<svg width="260" height="260" viewBox="0 0 260 260" fill="none" xmlns="http://www.w3.org/2000/svg">
<g clip-path="url(#clip0_706_216)">
<rect width="260" height="260" rx="130" fill="white"/>
<circle cx="130" cy="130" r="130" fill="#DEF4FF"/>
<path d="M130.337 32.7053C131.975 33.0953 133.613 33.2772 135.277 33.1212C143.493 32.4192 171.443 32.1073 183.507 58.7312C197.703 90.1392 205.425 98.6412 195.519 135.145C185.613 171.649 193.517 170.271 198.639 188.861L198.795 189.407C201.551 199.417 193.439 209.089 183.065 208.231L163.227 206.541C161.797 206.411 160.341 206.515 158.937 206.801C147.653 209.141 93.755 219.827 73.085 214.419C66.013 212.573 59.955 210.337 54.911 208.101C46.279 204.279 43.575 193.515 48.931 185.741C51.193 182.491 52.961 178.929 53.325 175.523C54.417 165.019 47.111 155.555 49.997 137.745C54.807 107.923 63.933 110.679 65.545 92.0632C66.481 81.4032 82.523 21.2913 130.311 32.7053H130.337Z" fill="#EB3F3A"/>
<path d="M130.337 32.7053C131.975 33.0953 133.613 33.2772 135.277 33.1212C143.493 32.4192 171.443 32.1073 183.507 58.7312C197.703 90.1392 205.425 98.6412 195.519 135.145C185.613 171.649 193.517 170.271 198.639 188.861L198.795 189.407C201.551 199.417 193.439 209.089 183.065 208.231L163.227 206.541C161.797 206.411 160.341 206.515 158.937 206.801C147.653 209.141 93.755 219.827 73.085 214.419C66.013 212.573 59.955 210.337 54.911 208.101C46.279 204.279 43.575 193.515 48.931 185.741C51.193 182.491 52.961 178.929 53.325 175.523C54.417 165.019 47.111 155.555 49.997 137.745C54.807 107.923 63.933 110.679 65.545 92.0632C66.481 81.4032 82.523 21.2913 130.311 32.7053H130.337Z" fill="#EB3F3A"/>
<path d="M233.454 228.278C211.926 221.024 158.132 193.178 158.132 193.178L154.804 167.75H107.692L104.65 193.178C104.65 193.178 50.8818 221.024 29.3278 228.278C7.7738 235.532 7.7998 272.296 7.7998 272.296H255.008C255.008 272.296 255.008 235.532 233.48 228.278H233.454Z" fill="#FFB69F"/>
<path d="M131.403 201.215C146.179 201.215 158.157 197.619 158.157 193.181C158.157 188.744 146.179 185.147 131.403 185.147C116.628 185.147 104.649 188.744 104.649 193.181C104.649 197.619 116.628 201.215 131.403 201.215Z" fill="#FFB69F"/>
<path d="M105.663 184.754C105.663 184.754 142.193 188.108 155.063 172.092V153.684L108.757 158.13L105.663 184.754V184.754Z" fill="#FF9988"/>
<path d="M133.588 175.135C163.039 175.135 186.914 144.613 186.914 106.963C186.914 69.3127 163.039 38.791 133.588 38.791C104.137 38.791 80.2617 69.3127 80.2617 106.963C80.2617 144.613 104.137 175.135 133.588 175.135Z" fill="#FFB69F"/>
<path d="M185.224 100.435C185.224 100.435 194.428 99.3169 195.26 108.079C196.092 116.841 193.154 123.575 187.694 126.487C187.694 126.487 186.524 127.059 183.846 127.527L185.224 100.461V100.435Z" fill="#FFB69F"/>
<path d="M81.3278 100.435C81.3278 100.435 72.1238 99.3169 71.2918 108.079C70.4598 116.841 73.3978 123.575 78.8578 126.487C78.8578 126.487 80.0278 127.059 82.7058 127.527L81.3278 100.461V100.435Z" fill="#FFB69F"/>
<path d="M80.2612 101.062C80.2612 101.062 76.3872 38.2977 133.587 39.0517V104.728L80.2612 101.062V101.062Z" fill="#FFB69F"/>
<path d="M186.888 101.062C186.888 101.062 190.762 38.2977 133.562 39.0517V104.728L186.888 101.062V101.062Z" fill="#FFB69F"/>
<path d="M97.0312 93.2894C105.819 91.7034 113.593 92.9514 117.545 93.7054C118.741 93.9394 119.937 93.3674 120.301 92.3794C120.717 91.2614 119.937 90.1174 118.585 89.8574C114.087 88.9994 106.001 87.6994 97.5252 90.6634C96.2252 91.1314 93.9112 92.4054 94.6132 93.4194C95.0032 93.7834 95.8612 93.4714 97.0312 93.2634V93.2894Z" fill="#EB3F3A"/>
<path d="M170.691 93.3159C161.903 91.7299 154.129 92.9779 150.177 93.7319C148.981 93.9659 147.785 93.3679 147.421 92.3799C147.005 91.2619 147.785 90.0919 149.137 89.8319C153.635 88.9479 161.721 87.6479 170.197 90.6639C171.497 91.1319 173.811 92.4059 173.109 93.4459C172.719 93.8099 171.861 93.4979 170.691 93.2899V93.3159Z" fill="#EB3F3A"/>
<path d="M158.783 112.421C160.52 112.421 161.929 109.976 161.929 106.961C161.929 103.945 160.52 101.501 158.783 101.501C157.045 101.501 155.637 103.945 155.637 106.961C155.637 109.976 157.045 112.421 158.783 112.421Z" fill="#441D39"/>
<path d="M111.591 111.304C113.329 111.304 114.737 108.859 114.737 105.844C114.737 102.828 113.329 100.384 111.591 100.384C109.854 100.384 108.445 102.828 108.445 105.844C108.445 108.859 109.854 111.304 111.591 111.304Z" fill="#441D39"/>
<path d="M137.254 131.507H132.288C130.078 131.507 128.128 130.649 127.088 129.219C126.334 128.205 126.126 127.009 126.49 125.839C127.634 122.095 128.596 118.533 128.596 118.533C128.778 117.831 129.506 117.441 130.182 117.623C130.884 117.805 131.3 118.533 131.092 119.209C131.092 119.209 130.13 122.823 128.96 126.593C128.856 126.983 128.908 127.321 129.168 127.685C129.714 128.413 130.936 128.907 132.288 128.907H137.254C137.982 128.907 138.554 129.479 138.554 130.207C138.554 130.935 137.982 131.507 137.254 131.507V131.507Z" fill="#FF9988"/>
<path d="M125.969 148.432C123.551 148.432 121.965 148.302 121.783 148.276C121.081 148.224 120.535 147.574 120.613 146.872C120.665 146.144 121.315 145.65 122.017 145.676C122.173 145.676 136.837 146.872 147.705 141.516C148.355 141.204 149.135 141.464 149.447 142.114C149.759 142.764 149.499 143.544 148.849 143.856C140.893 147.782 131.351 148.406 125.995 148.406L125.969 148.432Z" fill="#FF9988"/>
<path d="M161.382 120.976C166.393 120.976 170.456 120.045 170.456 118.896C170.456 117.748 166.393 116.816 161.382 116.816C156.37 116.816 152.308 117.748 152.308 118.896C152.308 120.045 156.37 120.976 161.382 120.976Z" fill="#FF9988"/>
<path d="M108.445 120.976C113.457 120.976 117.519 120.045 117.519 118.896C117.519 117.748 113.457 116.816 108.445 116.816C103.434 116.816 99.3711 117.748 99.3711 118.896C99.3711 120.045 103.434 120.976 108.445 120.976Z" fill="#FF9988"/>
<path d="M158.156 193.182C158.156 193.182 157.402 184.446 156.934 183.9C145.208 187.618 123.082 187.202 105.844 183.198C105.844 183.198 104.362 189.022 82.7039 204.284L50.7759 219.494L47.8379 272.3H212.002L206.542 217.206L158.182 193.182H158.156Z" fill="#1C2642"/>
<path d="M151.346 36.7918C151.268 36.6618 151.216 36.5058 151.138 36.4018C149.448 33.5938 123.422 32.4498 121.264 33.1258C119.522 33.6718 97.0838 46.5938 88.5558 51.5338C86.4498 52.7558 84.8378 54.6539 84.0058 56.9419L66.6898 103.898C66.2738 105.016 66.0658 106.212 66.0398 107.434L65.3638 202.126C65.3378 207.482 62.4518 211.018 67.7818 211.564L91.2338 214.242C96.3558 214.762 101.062 211.486 102.362 206.52L104.182 196.198C104.806 193.806 104.078 191.934 104.364 189.022C105.352 179.298 89.4918 156.86 91.7538 150.048C94.5618 141.572 98.4098 132.498 99.0858 121.006C99.7618 109.514 92.3258 89.2339 102.804 64.5859C111.228 44.7739 130.78 48.7258 138.112 51.0398C138.658 51.2218 139.23 51.3259 139.802 51.4039C139.802 51.4039 181.922 64.4559 183.014 111.308C183.014 111.308 184.73 113.96 185.822 110.84C193.336 89.1819 183.586 41.4458 151.32 36.8178L151.346 36.7918Z" fill="#EB3F3A"/>
<path d="M186.835 123.602C187.812 123.602 188.603 122.811 188.603 121.834C188.603 120.858 187.812 120.066 186.835 120.066C185.859 120.066 185.067 120.858 185.067 121.834C185.067 122.811 185.859 123.602 186.835 123.602Z" fill="white"/>
</g>
<defs>
<clipPath id="clip0_706_216">
<rect width="260" height="260" rx="130" fill="white"/>
</clipPath>
</defs>
</svg>
