<svg width="260" height="260" viewBox="0 0 260 260" fill="none" xmlns="http://www.w3.org/2000/svg">
<g clip-path="url(#clip0_706_215)">
<rect width="260" height="260" rx="130" fill="white"/>
<circle cx="130" cy="130" r="130" fill="#DEF4FF"/>
<path d="M233.454 228.282C211.926 221.028 158.132 193.182 158.132 193.182H104.65C104.65 193.182 50.8818 221.028 29.3278 228.282C7.7998 235.536 7.7998 272.3 7.7998 272.3H255.008C255.008 272.3 255.008 235.536 233.48 228.282H233.454Z" fill="#424777"/>
<path fill-rule="evenodd" clip-rule="evenodd" d="M104.183 197.235L107.693 167.751H154.831L158.471 195.675L153.476 195.818L141.049 204.257L135.069 263.121L125.189 204.985L115.686 196.904L104.183 197.235Z" fill="#C1735C"/>
<path d="M105.663 184.755C105.663 184.755 142.193 188.109 155.063 172.093V153.685L108.757 158.131L105.663 184.755V184.755Z" fill="#A5503C"/>
<path d="M105.273 188.033L87.6709 201.787L111.409 224.953L125.189 204.985L105.273 188.033Z" fill="#515882"/>
<path d="M141.05 204.257L157.508 188.267L173.55 200.955L152.308 224.199L141.05 204.257Z" fill="#515882"/>
<path d="M120.562 16.7966C117.156 8.37261 101.088 3.22461 101.088 3.22461C105.066 29.5626 120.198 23.8946 120.198 23.8946C120.51 23.2706 120.718 22.6466 120.9 22.0486C132.756 28.6526 142.636 4.42061 142.636 4.42061C126.126 5.61661 121.602 12.0646 120.562 16.7966V16.7966Z" fill="#FF7C59"/>
<path fill-rule="evenodd" clip-rule="evenodd" d="M133.589 175.136C157.467 175.136 177.68 155.072 184.474 127.411C186.708 126.97 187.694 126.488 187.694 126.488C193.154 123.576 196.092 116.842 195.26 108.08C194.636 101.504 189.296 100.493 186.67 100.398C184.086 65.8281 161.307 38.792 133.589 38.792C105.872 38.792 83.094 65.8245 80.5072 100.391C78.2329 100.358 71.9712 100.925 71.2918 108.08C70.4598 116.842 73.3978 123.576 78.8578 126.488C78.8578 126.488 80.0278 127.06 82.7058 127.528L82.6991 127.396C89.4896 155.064 109.706 175.136 133.589 175.136Z" fill="#C1735C"/>
<path d="M133.587 34.7875C76.3872 33.9815 80.2612 100.828 80.2612 100.828L133.587 104.728L186.913 100.828C186.913 100.828 190.787 33.9815 133.587 34.7875V34.7875Z" fill="#C1735C"/>
<path d="M97.0312 93.2894C105.819 91.7034 113.593 92.9514 117.545 93.7054C118.741 93.9394 119.937 93.3674 120.301 92.3794C120.717 91.2614 119.937 90.1174 118.585 89.8574C114.087 88.9994 106.001 87.6994 97.5252 90.6634C96.2252 91.1314 93.9112 92.4054 94.6132 93.4194C95.0032 93.7834 95.8612 93.4714 97.0312 93.2634V93.2894Z" fill="#441D39"/>
<path d="M170.691 93.3169C161.903 91.7309 154.129 92.9789 150.177 93.7329C148.981 93.9669 147.785 93.3689 147.421 92.3809C147.005 91.2629 147.785 90.0929 149.137 89.8329C153.635 88.9489 161.721 87.6489 170.197 90.6649C171.497 91.1329 173.811 92.4069 173.109 93.4469C172.719 93.8109 171.861 93.4989 170.691 93.2909V93.3169Z" fill="#441D39"/>
<path d="M158.783 112.422C160.52 112.422 161.929 109.977 161.929 106.962C161.929 103.946 160.52 101.502 158.783 101.502C157.045 101.502 155.637 103.946 155.637 106.962C155.637 109.977 157.045 112.422 158.783 112.422Z" fill="#441D39"/>
<path d="M111.591 111.305C113.329 111.305 114.737 108.86 114.737 105.845C114.737 102.829 113.329 100.385 111.591 100.385C109.854 100.385 108.445 102.829 108.445 105.845C108.445 108.86 109.854 111.305 111.591 111.305Z" fill="#441D39"/>
<path d="M137.279 131.507H132.313C130.103 131.507 128.153 130.649 127.113 129.245C126.359 128.231 126.151 127.035 126.515 125.865C127.659 122.121 128.621 118.585 128.621 118.559C128.803 117.857 129.505 117.467 130.207 117.649C130.909 117.831 131.325 118.559 131.117 119.235C131.117 119.235 130.155 122.849 128.985 126.619C128.881 126.983 128.933 127.347 129.193 127.711C129.739 128.465 130.961 128.933 132.313 128.933H137.279C138.007 128.933 138.579 129.505 138.579 130.233C138.579 130.961 138.007 131.533 137.279 131.533V131.507Z" fill="#A5503C"/>
<path d="M125.945 148.458C123.527 148.458 121.941 148.328 121.759 148.302C121.031 148.25 120.511 147.6 120.563 146.898C120.615 146.196 121.239 145.65 121.967 145.702C122.123 145.702 136.787 146.898 147.655 141.542C148.305 141.23 149.085 141.49 149.397 142.14C149.709 142.79 149.449 143.57 148.799 143.882C140.843 147.808 131.301 148.432 125.919 148.432L125.945 148.458Z" fill="#A5503C"/>
<path d="M161.382 120.977C166.393 120.977 170.456 120.046 170.456 118.897C170.456 117.749 166.393 116.817 161.382 116.817C156.37 116.817 152.308 117.749 152.308 118.897C152.308 120.046 156.37 120.977 161.382 120.977Z" fill="#AF5D4E"/>
<path d="M108.445 120.977C113.457 120.977 117.519 120.046 117.519 118.897C117.519 117.749 113.457 116.817 108.445 116.817C103.434 116.817 99.3711 117.749 99.3711 118.897C99.3711 120.046 103.434 120.977 108.445 120.977Z" fill="#AF5D4E"/>
<path d="M168.375 59.826C168.375 59.826 184.131 88.244 186.887 100.828C186.887 100.828 195.415 62.946 175.317 42.458L168.375 59.8V59.826Z" fill="#FF7C59"/>
<path d="M80.2607 100.83L85.9287 79.1982H79.0127L80.2607 100.83Z" fill="#FF7C59"/>
<path d="M166.581 31.253C166.581 31.253 166.581 31.123 166.581 31.071C166.581 25.013 161.667 20.125 155.635 20.125C154.309 20.125 153.087 20.385 151.917 20.827C148.693 17.421 143.649 15.211 137.929 15.211C132.651 15.211 127.919 17.109 124.669 20.099C121.263 18.045 117.051 16.797 112.501 16.797C110.577 16.797 108.731 17.031 106.963 17.421C104.389 15.185 101.061 13.833 97.395 13.833C91.623 13.833 86.657 17.187 84.291 22.049C82.861 20.853 81.041 20.125 79.039 20.125C74.463 20.125 70.771 23.843 70.771 28.393C70.771 28.887 70.823 29.355 70.927 29.823C61.905 29.953 54.625 37.311 54.625 46.359C54.625 51.845 57.303 56.707 61.437 59.723C59.903 62.219 59.019 65.157 59.019 68.329C59.019 77.481 66.429 84.891 75.581 84.891C84.733 84.891 92.143 77.481 92.143 68.329C92.143 68.147 92.143 67.965 92.117 67.783C94.327 68.875 96.797 69.499 99.423 69.499C108.185 69.499 115.335 62.687 115.933 54.107C118.923 57.149 123.083 59.021 127.685 59.021C134.523 59.021 140.399 54.861 142.921 48.933C144.299 56.707 151.059 62.609 159.223 62.609C168.375 62.609 175.785 55.199 175.785 46.047C175.785 39.573 172.067 33.983 166.633 31.253H166.581Z" fill="#441D39"/>
</g>
<defs>
<clipPath id="clip0_706_215">
<rect width="260" height="260" rx="130" fill="white"/>
</clipPath>
</defs>
</svg>
