<svg width="260" height="260" viewBox="0 0 260 260" fill="none" xmlns="http://www.w3.org/2000/svg">
<g clip-path="url(#clip0_706_210)">
<rect width="260" height="260" rx="130" fill="white"/>
<circle cx="130" cy="130" r="130" fill="#DEF4FF"/>
<path d="M68.9518 101.375C64.8438 143.469 58.3958 158.861 54.9118 164.321C54.0278 165.673 54.8858 167.493 56.4718 167.701L127.686 177.035L132.002 31.903C132.002 31.903 76.5178 23.505 68.9518 101.375Z" fill="#441D39"/>
<path d="M211.562 164.321C208.052 158.861 201.604 143.469 197.522 101.375C189.956 23.5049 132.912 31.8509 132.912 31.8509L138.814 177.009L210.028 167.675C211.64 167.467 212.472 165.673 211.588 164.295L211.562 164.321Z" fill="#441D39"/>
<path d="M107.693 167.751L104.183 197.235L158.471 195.675L154.831 167.751H107.693Z" fill="#FFC7A4"/>
<path d="M105.663 184.755C105.663 184.755 142.193 188.109 155.063 172.093V153.685L108.757 158.131L105.663 184.755V184.755Z" fill="#F2B594"/>
<path d="M195.287 108.08C194.663 101.476 189.281 100.488 186.655 100.41C184.081 65.8298 159.719 31.9258 132.029 31.9258C104.339 31.9258 83.1231 65.8298 80.5491 100.41C78.2871 100.384 71.9951 100.93 71.3191 108.106C70.4871 116.868 73.4251 123.602 78.8851 126.514C78.8851 126.514 80.0551 127.086 82.7331 127.554V127.372C89.4931 155.088 109.721 175.186 133.615 175.186C157.509 175.186 177.711 155.114 184.497 127.424C186.733 126.982 187.747 126.514 187.747 126.514C193.207 123.602 196.145 116.868 195.313 108.106L195.287 108.08Z" fill="#FFC7A4"/>
<path d="M97.0312 93.2894C105.819 91.7034 113.593 92.9514 117.545 93.7054C118.741 93.9394 119.937 93.3674 120.301 92.3794C120.717 91.2614 119.937 90.1174 118.585 89.8574C114.087 88.9994 106.001 87.6994 97.5252 90.6634C96.2252 91.1314 93.9112 92.4054 94.6132 93.4194C95.0032 93.7834 95.8612 93.4714 97.0312 93.2634V93.2894Z" fill="#441D39"/>
<path d="M170.637 93.2894C161.849 91.7034 154.075 92.9514 150.123 93.7054C148.927 93.9394 147.731 93.3674 147.367 92.3794C146.951 91.2614 147.731 90.1174 149.083 89.8574C153.581 88.9994 161.667 87.6994 170.143 90.6634C171.443 91.1314 173.757 92.4054 173.055 93.4194C172.665 93.7834 171.807 93.4714 170.637 93.2634V93.2894Z" fill="#441D39"/>
<path d="M158.783 111.304C160.52 111.304 161.929 108.859 161.929 105.844C161.929 102.828 160.52 100.384 158.783 100.384C157.045 100.384 155.637 102.828 155.637 105.844C155.637 108.859 157.045 111.304 158.783 111.304Z" fill="#441D39"/>
<path d="M111.591 111.304C113.329 111.304 114.737 108.859 114.737 105.844C114.737 102.828 113.329 100.384 111.591 100.384C109.854 100.384 108.445 102.828 108.445 105.844C108.445 108.859 109.854 111.304 111.591 111.304Z" fill="#441D39"/>
<path d="M137.279 131.507H132.313C129.687 131.507 127.555 130.701 126.723 129.375C126.255 128.647 126.203 127.815 126.567 127.035C127.711 124.617 128.647 122.277 128.647 122.277C128.907 121.601 129.687 121.289 130.337 121.575C131.013 121.835 131.325 122.615 131.039 123.265C131.039 123.265 130.077 125.657 128.907 128.153C129.037 128.231 130.103 128.907 132.313 128.907H137.279C138.007 128.907 138.579 129.479 138.579 130.207C138.579 130.935 138.007 131.507 137.279 131.507Z" fill="#EDA07E"/>
<path d="M132.523 147.862C126.465 147.862 121.863 147.03 121.525 146.952C120.823 146.822 120.355 146.146 120.485 145.444C120.615 144.742 121.317 144.274 121.993 144.404C122.149 144.404 136.631 147.082 147.967 142.844C148.643 142.584 149.397 142.922 149.631 143.598C149.891 144.274 149.553 145.028 148.877 145.262C143.443 147.29 137.489 147.862 132.497 147.862H132.523Z" fill="#EDA07E"/>
<path d="M161.382 120.977C166.393 120.977 170.456 120.046 170.456 118.897C170.456 117.749 166.393 116.817 161.382 116.817C156.37 116.817 152.308 117.749 152.308 118.897C152.308 120.046 156.37 120.977 161.382 120.977Z" fill="#EAA281"/>
<path d="M108.445 120.977C113.457 120.977 117.519 120.046 117.519 118.897C117.519 117.749 113.457 116.817 108.445 116.817C103.434 116.817 99.3711 117.749 99.3711 118.897C99.3711 120.046 103.434 120.977 108.445 120.977Z" fill="#EAA281"/>
<path d="M82.6537 83.7954L80.0537 83.6394C82.6017 40.3234 122.98 34.1614 123.396 34.1094L123.76 36.6834C123.76 36.6834 113.932 38.1394 104.052 44.6654C90.8697 53.3754 83.6937 66.5314 82.6537 83.7954V83.7954Z" fill="#30132B"/>
<path d="M132.912 31.875V54.417C132.912 54.417 171.262 48.775 186.914 100.411C186.914 100.411 197.548 30.939 132.912 31.901V31.875Z" fill="#441D39"/>
<path d="M132.002 31.8999V54.4419C132.002 54.4419 95.9396 49.7359 80.2876 101.372C80.2876 101.372 67.3657 30.9639 132.002 31.8999V31.8999Z" fill="#441D39"/>
<path d="M233.454 228.281C215.852 222.353 176.748 202.697 163.02 195.677C163.02 195.599 163.02 195.521 162.968 195.443L159.952 185.745C159.536 184.393 158.288 183.457 156.858 183.457H104.728C103.168 183.457 101.842 184.549 101.556 186.083L97.7598 195.313C97.6558 195.807 97.6818 196.275 97.7858 196.717C82.6018 204.439 46.1498 222.639 29.3278 228.307C7.7998 235.561 7.7998 272.325 7.7998 272.325H255.008C255.008 272.325 255.008 235.561 233.48 228.307L233.454 228.281Z" fill="#4598C4"/>
<path d="M81.1463 137.695C80.3923 137.695 80.0543 137.695 79.9243 136.291H79.8723C79.8723 136.291 79.8723 135.979 79.8723 135.615C79.8203 134.419 79.8203 132.573 79.8203 129.635C79.8203 126.697 79.8203 124.851 79.8723 123.655C79.8723 123.291 79.8723 123.057 79.8723 122.979H79.9243C80.0803 121.575 80.3923 121.575 81.1463 121.575C81.9003 121.575 82.2383 121.575 82.3683 122.979H82.4203C82.4203 122.979 82.4203 123.291 82.4203 123.655C82.4723 124.851 82.4723 126.697 82.4723 129.635C82.4723 132.573 82.4723 134.419 82.4203 135.615C82.4203 135.979 82.4203 136.213 82.4203 136.291H82.3683C82.2123 137.695 81.9003 137.695 81.1463 137.695Z" fill="#FFA33A"/>
<path d="M187.797 137.695C187.043 137.695 186.705 137.695 186.575 136.291H186.523C186.523 136.291 186.523 135.979 186.523 135.615C186.471 134.419 186.471 132.573 186.471 129.635C186.471 126.697 186.471 124.851 186.523 123.655C186.523 123.291 186.523 123.057 186.523 122.979H186.575C186.731 121.575 187.043 121.575 187.797 121.575C188.551 121.575 188.889 121.575 189.019 122.979H189.071C189.071 122.979 189.071 123.291 189.071 123.655C189.123 124.851 189.123 126.697 189.123 129.635C189.123 132.573 189.123 134.419 189.071 135.615C189.071 135.979 189.071 136.213 189.071 136.291H189.019C188.863 137.695 188.551 137.695 187.797 137.695Z" fill="#FFA33A"/>
<path d="M108.266 203.14C108.266 203.14 108.11 203.14 108.058 203.14C107.356 203.01 106.862 202.36 106.992 201.632L108.968 190.088C109.098 189.386 109.774 188.918 110.476 189.022C111.178 189.152 111.672 189.802 111.542 190.53L109.566 202.074C109.462 202.698 108.916 203.166 108.292 203.166L108.266 203.14Z" fill="#2579AD"/>
<path d="M152.309 203.136C151.685 203.136 151.139 202.694 151.035 202.044L149.059 190.5C148.929 189.798 149.423 189.122 150.125 188.992C150.827 188.888 151.503 189.356 151.633 190.058L153.609 201.602C153.739 202.304 153.245 202.98 152.543 203.11C152.465 203.11 152.387 203.11 152.335 203.11L152.309 203.136Z" fill="#2579AD"/>
<path d="M131.429 204.232C130.701 204.232 130.129 203.66 130.129 202.932V191.232C130.129 190.504 130.701 189.932 131.429 189.932C132.157 189.932 132.729 190.504 132.729 191.232V202.932C132.729 203.66 132.157 204.232 131.429 204.232Z" fill="#2579AD"/>
</g>
<defs>
<clipPath id="clip0_706_210">
<rect width="260" height="260" rx="130" fill="white"/>
</clipPath>
</defs>
</svg>
