<svg width="260" height="260" viewBox="0 0 260 260" fill="none" xmlns="http://www.w3.org/2000/svg">
<g clip-path="url(#clip0_706_208)">
<rect width="260" height="260" rx="130" fill="white"/>
<circle cx="130" cy="130" r="130" fill="#DEF4FF"/>
<path d="M229.398 180.671C238.342 158.831 223.808 156.595 208.676 145.311C193.544 134.027 218.192 129.191 223.236 117.595C228.28 105.999 219.31 97.8352 208.13 91.6732C196.924 85.5112 180.648 61.5392 180.648 61.5392L179.92 61.2012C188.37 78.1532 188.006 97.5232 187.876 100.409C190.58 100.565 195.624 101.683 196.248 108.079C197.08 116.841 194.142 123.575 188.682 126.487C188.682 126.487 187.642 126.955 185.432 127.397C178.646 155.061 158.444 175.159 134.55 175.159C110.656 175.159 90.4276 155.061 83.6676 127.345V127.527C80.9896 127.059 79.8196 126.487 79.8196 126.487C74.3596 123.575 71.4216 116.841 72.2536 108.079C72.9036 101.163 78.7796 100.409 81.2236 100.383C81.1716 98.7712 81.0416 92.2452 82.2896 83.9252C78.1556 85.9532 65.7536 92.6612 65.9876 100.383C66.2996 109.665 68.9516 122.405 57.0176 125.863C45.0836 129.321 44.6676 151.551 49.6856 162.835C54.7036 174.119 58.0836 181.217 42.3276 188.107C26.5716 194.997 44.0956 208.101 42.4056 233.269C40.7156 258.437 63.6736 247.283 109.382 238.885C155.09 230.487 187.928 241.693 212.576 238.885C237.198 236.077 234.416 228.277 225.446 216.681C216.476 205.085 220.402 202.511 229.372 180.671H229.398Z" fill="#441D39"/>
<path d="M142.167 43.5487L179.945 61.2027C172.847 46.9807 159.535 34.4487 134.575 34.7867C96.1474 34.2407 85.3054 64.2187 82.3154 83.9267C83.1474 83.5107 83.6674 83.2767 83.6674 83.2767L142.167 43.5227V43.5487Z" fill="#C1735C"/>
<path d="M234.441 228.282C212.913 221.028 159.119 193.182 159.119 193.182H105.637C105.637 193.182 51.8691 221.028 30.3151 228.282C8.78711 235.536 8.78711 272.3 8.78711 272.3H255.995C255.995 272.3 255.995 235.536 234.467 228.282H234.441Z" fill="#4598C4"/>
<path d="M155.818 167.75H108.68L105.17 197.234L132.886 256.644L159.458 195.674L155.818 167.75Z" fill="#C1735C"/>
<path d="M108.756 166.607L106.65 184.755C106.65 184.755 143.18 188.109 156.05 172.093V169.363C149.472 173.081 142.218 175.161 134.548 175.161C125.188 175.161 116.4 172.041 108.756 166.607Z" fill="#A5503C"/>
<path d="M196.273 108.082C195.675 101.686 190.605 100.568 187.901 100.412C188.005 97.5258 188.395 78.1558 179.945 61.2038L142.167 43.5498L83.6671 83.3038C83.6671 83.3038 83.1471 83.5378 82.3151 83.9538C81.0411 92.2738 81.1711 98.7998 81.2491 100.412C78.8051 100.412 72.9291 101.192 72.2791 108.108C71.4471 116.87 74.3851 123.604 79.8451 126.516C79.8451 126.516 81.0151 127.088 83.6931 127.556V127.374C87.8011 144.222 96.9011 158.236 108.783 166.634C116.427 172.068 125.215 175.188 134.575 175.188C142.219 175.188 149.499 173.108 156.077 169.39C170.039 161.512 180.855 146.224 185.457 127.426C187.693 126.984 188.707 126.516 188.707 126.516C194.167 123.604 197.105 116.87 196.273 108.108V108.082Z" fill="#C1735C"/>
<path d="M97.8634 92.145C106.781 91.521 114.373 93.601 118.221 94.771C119.391 95.135 120.613 94.667 121.107 93.757C121.627 92.691 120.977 91.469 119.677 91.053C115.309 89.701 107.405 87.543 98.6434 89.597C97.2914 89.909 94.8734 90.923 95.4454 92.041C95.7834 92.431 96.6934 92.249 97.8634 92.171V92.145Z" fill="#441D39"/>
<path d="M171.78 92.5852C162.888 91.5972 155.244 93.3912 151.344 94.4312C150.174 94.7432 148.952 94.2492 148.51 93.2872C148.016 92.1952 148.718 90.9732 150.044 90.6352C154.464 89.4392 162.446 87.5932 171.13 89.9852C172.456 90.3492 174.848 91.4672 174.224 92.5592C173.86 92.9492 172.976 92.7152 171.806 92.5592L171.78 92.5852Z" fill="#441D39"/>
<path d="M159.77 112.421C161.508 112.421 162.916 109.976 162.916 106.961C162.916 103.945 161.508 101.501 159.77 101.501C158.033 101.501 156.624 103.945 156.624 106.961C156.624 109.976 158.033 112.421 159.77 112.421Z" fill="#441D39"/>
<path d="M112.579 111.304C114.316 111.304 115.725 108.859 115.725 105.844C115.725 102.828 114.316 100.384 112.579 100.384C110.841 100.384 109.433 102.828 109.433 105.844C109.433 108.859 110.841 111.304 112.579 111.304Z" fill="#441D39"/>
<path d="M138.267 131.507H133.301C131.091 131.507 129.141 130.649 128.101 129.219C127.347 128.205 127.139 127.009 127.503 125.839C128.647 122.121 129.609 118.559 129.609 118.533C129.791 117.831 130.493 117.441 131.195 117.623C131.897 117.805 132.313 118.533 132.105 119.209C132.105 119.209 131.143 122.823 129.973 126.593C129.869 126.983 129.921 127.321 130.181 127.685C130.727 128.439 131.949 128.907 133.301 128.907H138.267C138.995 128.907 139.567 129.479 139.567 130.207C139.567 130.935 138.995 131.507 138.267 131.507V131.507Z" fill="#A5503C"/>
<path d="M133.51 147.862C127.452 147.862 122.85 147.03 122.512 146.952C121.81 146.822 121.342 146.146 121.472 145.444C121.602 144.742 122.278 144.274 122.98 144.404C123.11 144.404 137.618 147.082 148.954 142.844C149.63 142.584 150.384 142.922 150.618 143.598C150.878 144.274 150.514 145.028 149.864 145.262C144.43 147.29 138.476 147.862 133.484 147.862H133.51Z" fill="#A5503C"/>
<path d="M162.369 120.976C167.38 120.976 171.443 120.045 171.443 118.896C171.443 117.748 167.38 116.816 162.369 116.816C157.357 116.816 153.295 117.748 153.295 118.896C153.295 120.045 157.357 120.976 162.369 120.976Z" fill="#AF5D4E"/>
<path d="M109.432 120.976C114.444 120.976 118.506 120.045 118.506 118.896C118.506 117.748 114.444 116.816 109.432 116.816C104.421 116.816 100.358 117.748 100.358 118.896C100.358 120.045 104.421 120.976 109.432 120.976Z" fill="#AF5D4E"/>
<path d="M79.3501 85.6428L79.5061 86.8648L72.1221 94.5348L66.4541 111.305C66.4541 111.305 73.0841 132.807 82.5221 146.145C91.9341 159.509 87.6441 139.333 83.6661 127.321C79.6881 115.309 87.1241 115.153 88.8661 106.963C89.9581 101.789 88.0341 97.0308 86.4741 94.2488C85.0961 89.4908 86.3181 83.7708 92.8441 82.0028C108.132 77.8168 98.1221 52.4668 98.1221 52.4668C89.3341 58.1088 81.6901 80.8848 79.3761 85.6168L79.3501 85.6428Z" fill="#441D39"/>
<path d="M196.402 94.5351L190.994 94.9511C188.784 83.5371 183.922 61.0211 179.528 58.6811C173.6 55.5351 166.866 60.6571 166.866 60.6571C166.866 60.6571 170.246 79.0911 177.656 83.2511C182.05 85.7211 182.024 91.2851 182.128 95.3931C179.58 108.679 172.976 123.447 187.874 136.785C204.124 151.319 207.634 112.423 207.634 112.423L196.402 94.5351V94.5351Z" fill="#441D39"/>
<path d="M188.292 38.95C179.894 24.988 147.602 18.072 120.718 23.558L118.924 17.5C118.586 16.382 117.416 15.732 116.272 16.07C115.154 16.408 114.504 17.578 114.842 18.722L116.558 24.572C95.7841 30.006 74.1521 45.476 64.6621 64.924C54.8861 84.944 79.5341 85.386 79.5341 85.386C100.516 53.744 180.648 61.544 180.648 61.544C185.302 60.556 196.924 53.354 188.266 38.976L188.292 38.95Z" fill="#FF7C59"/>
<path d="M93.261 215.176C92.767 215.176 92.299 214.916 92.091 214.448C91.779 213.798 92.065 213.018 92.689 212.706L102.491 208C103.141 207.688 103.921 207.974 104.233 208.624C104.545 209.274 104.259 210.054 103.635 210.366L93.833 215.072C93.651 215.15 93.469 215.202 93.261 215.202V215.176Z" fill="#2A5E70"/>
<path d="M97.7327 230.644C97.2387 230.644 96.7707 230.384 96.5627 229.916C96.2507 229.266 96.5367 228.486 97.1607 228.174L106.963 223.468C107.613 223.156 108.393 223.442 108.705 224.066C109.017 224.69 108.731 225.496 108.107 225.808L98.3047 230.514C98.1227 230.592 97.9407 230.644 97.7327 230.644Z" fill="#2A5E70"/>
<path d="M103.428 248.925C102.934 248.925 102.466 248.665 102.258 248.197C101.946 247.547 102.232 246.767 102.856 246.455L112.658 241.749C113.308 241.437 114.088 241.723 114.4 242.347C114.712 242.997 114.426 243.777 113.802 244.089L104 248.795C103.818 248.873 103.636 248.925 103.428 248.925Z" fill="#2A5E70"/>
<path d="M169.754 215.176C169.572 215.176 169.364 215.124 169.182 215.046L159.38 210.34C158.73 210.028 158.47 209.248 158.782 208.598C159.094 207.948 159.874 207.662 160.524 207.974L170.326 212.68C170.976 212.992 171.236 213.772 170.924 214.422C170.69 214.89 170.248 215.15 169.754 215.15V215.176Z" fill="#2A5E70"/>
<path d="M165.282 230.644C165.1 230.644 164.892 230.592 164.71 230.514L154.908 225.808C154.258 225.496 153.998 224.716 154.31 224.066C154.622 223.416 155.402 223.156 156.052 223.468L165.854 228.174C166.504 228.486 166.764 229.266 166.452 229.916C166.218 230.384 165.776 230.644 165.282 230.644Z" fill="#2A5E70"/>
<path d="M159.587 248.925C159.405 248.925 159.197 248.873 159.015 248.795L149.213 244.089C148.563 243.777 148.303 242.997 148.615 242.347C148.927 241.697 149.707 241.437 150.357 241.749L160.159 246.455C160.809 246.767 161.069 247.547 160.757 248.197C160.523 248.665 160.081 248.925 159.587 248.925Z" fill="#2A5E70"/>
</g>
<defs>
<clipPath id="clip0_706_208">
<rect width="260" height="260" rx="130" fill="white"/>
</clipPath>
</defs>
</svg>
