<svg width="260" height="260" viewBox="0 0 260 260" fill="none" xmlns="http://www.w3.org/2000/svg">
<g clip-path="url(#clip0_706_209)">
<rect width="260" height="260" rx="130" fill="white"/>
<circle cx="130" cy="130" r="130" fill="#DEF4FF"/>
<path d="M185.457 100.436C185.457 100.436 194.661 99.3179 195.493 108.08C196.325 116.842 193.387 123.576 187.927 126.488C187.927 126.488 186.757 127.06 184.079 127.528L185.457 100.462V100.436Z" fill="#FFB69F"/>
<path d="M81.3278 100.436C81.3278 100.436 72.1238 99.3179 71.2918 108.08C70.4598 116.842 73.3978 123.576 78.8578 126.488C78.8578 126.488 80.0278 127.06 82.7058 127.528L81.3278 100.462V100.436Z" fill="#FFB69F"/>
<path d="M7.7998 272.3C7.7998 272.3 7.7998 235.536 29.3278 228.282C50.8558 221.028 99.5018 193.182 99.5018 193.182H132.418V272.3H7.7998V272.3Z" fill="#F49037"/>
<path d="M255.007 272.3C255.007 272.3 255.007 235.536 233.479 228.282C211.951 221.028 163.825 193.182 163.825 193.182H130.389V272.3H255.007V272.3Z" fill="#F49037"/>
<path d="M107.691 167.751L104.649 193.179H158.157L154.829 167.751H107.691Z" fill="#FFB69F"/>
<path d="M131.403 208.392C146.179 208.392 158.157 203.189 158.157 196.77C158.157 190.352 146.179 185.148 131.403 185.148C116.628 185.148 104.649 190.352 104.649 196.77C104.649 203.189 116.628 208.392 131.403 208.392Z" fill="#FFB69F"/>
<path d="M105.663 184.755C105.663 184.755 142.193 188.109 155.063 172.093V153.685L108.757 158.131L105.663 184.755V184.755Z" fill="#FF9988"/>
<path d="M133.588 175.136C163.039 175.136 186.914 144.614 186.914 106.964C186.914 69.3136 163.039 38.792 133.588 38.792C104.137 38.792 80.2617 69.3136 80.2617 106.964C80.2617 144.614 104.137 175.136 133.588 175.136Z" fill="#FFB69F"/>
<path d="M180.154 52.522C180.154 52.522 180.206 52.392 180.154 52.314C178.386 48.076 176.228 26.782 141.544 23.558C132.652 22.726 119.938 24.208 111.878 28.056C100.828 33.308 88.4784 36.324 77.5584 36.298C77.0904 36.298 76.9084 36.922 77.3244 37.156L85.8524 43.942C86.1904 44.124 86.1644 44.618 85.8004 44.774L75.0884 48.024C74.6984 48.18 74.6984 48.752 75.0884 48.882C76.8304 49.454 81.2504 51.404 85.2544 52.782C78.7024 64.378 80.2104 81.044 80.2104 101.064C80.2104 101.064 80.0024 121.812 86.9964 145.602C94.6404 171.602 111.41 182.756 135.044 182.834C160.212 182.938 173.342 161.358 176.852 153.688C182.208 141.936 186.81 120.096 186.836 106.966C186.836 106.966 196.508 73.79 180.102 52.522H180.154ZM158.782 148.852C153.582 151.504 156.208 137.698 145.86 137.126C142.402 136.918 130.65 136.112 120.77 136.944C113.256 137.594 111.436 144.354 111.098 147.786C110.942 149.268 110.422 149.944 109.018 149.424C105.898 148.28 99.2684 144.588 96.1484 141.156C92.9244 137.62 87.1004 128.078 86.5544 107.928L87.1264 79.146C87.1264 79.146 98.6964 69.448 100.698 62.558C100.698 62.558 152.386 70.826 167.362 62.558C167.362 62.558 173.628 74.544 180.466 78.158C182.572 79.25 182.208 92.926 182.026 102.364C181.844 103.638 181.688 105.094 181.61 106.81C180.232 133.772 163.93 146.226 158.756 148.878L158.782 148.852Z" fill="#B54D4D"/>
<path d="M158.783 112.422C160.52 112.422 161.929 109.977 161.929 106.962C161.929 103.946 160.52 101.502 158.783 101.502C157.045 101.502 155.637 103.946 155.637 106.962C155.637 109.977 157.045 112.422 158.783 112.422Z" fill="#441D39"/>
<path d="M111.591 111.305C113.329 111.305 114.737 108.86 114.737 105.845C114.737 102.829 113.329 100.385 111.591 100.385C109.854 100.385 108.445 102.829 108.445 105.845C108.445 108.86 109.854 111.305 111.591 111.305Z" fill="#441D39"/>
<path d="M137.254 131.508H132.288C130.078 131.508 128.128 130.65 127.088 129.22C126.334 128.206 126.126 127.01 126.49 125.84C127.608 122.252 129.064 108.862 129.064 108.732C129.142 108.004 129.766 107.51 130.494 107.588C131.196 107.666 131.716 108.316 131.638 109.018C131.586 109.59 130.13 122.772 128.96 126.62C128.856 127.01 128.908 127.348 129.168 127.712C129.714 128.44 130.936 128.934 132.288 128.934H137.254C137.982 128.934 138.554 129.506 138.554 130.234C138.554 130.962 137.982 131.534 137.254 131.534V131.508Z" fill="#FF9988"/>
<path d="M161.537 120.977C166.548 120.977 170.611 120.046 170.611 118.897C170.611 117.749 166.548 116.817 161.537 116.817C156.525 116.817 152.463 117.749 152.463 118.897C152.463 120.046 156.525 120.977 161.537 120.977Z" fill="#FF9988"/>
<path d="M108.575 120.977C113.586 120.977 117.649 120.046 117.649 118.897C117.649 117.749 113.586 116.817 108.575 116.817C103.564 116.817 99.501 117.749 99.501 118.897C99.501 120.046 103.564 120.977 108.575 120.977Z" fill="#FF9988"/>
<path d="M169.804 94.2734C161.146 91.7254 154.516 93.3374 150.486 93.8574C148.77 94.0654 148.406 91.9594 148.406 91.9594C148.068 90.5294 149.992 89.5414 151.344 89.2814C155.894 88.4494 161.718 88.0334 170.35 91.0234C172.014 91.5954 172.118 92.9994 172.118 92.9994C171.936 94.5594 170.948 94.5854 169.804 94.2474V94.2734Z" fill="#B54D4D"/>
<path d="M100.099 94.4332C108.705 91.7292 115.361 93.2372 119.391 93.6792C121.107 93.8612 121.445 91.7552 121.445 91.7552C121.757 90.3252 119.807 89.3632 118.455 89.1292C113.879 88.3752 108.055 88.0372 99.5008 91.1832C97.8368 91.7812 97.7588 93.1852 97.7588 93.1852C97.9668 94.7452 98.9548 94.7452 100.073 94.4072L100.099 94.4332Z" fill="#B54D4D"/>
<path d="M133.302 152.622C127.166 152.622 122.278 151.322 121.966 151.244C121.264 151.062 120.874 150.334 121.056 149.658C121.238 148.982 121.966 148.566 122.642 148.748C122.772 148.774 134.732 151.946 144.378 148.176C145.054 147.916 145.808 148.254 146.068 148.904C146.328 149.58 145.99 150.334 145.34 150.594C141.362 152.154 137.098 152.648 133.328 152.648L133.302 152.622Z" fill="#9B3D3D"/>
<path d="M105.794 184.885L126.49 199.653L116.48 223.625L89.7002 198.691L105.794 184.885Z" fill="#FFA242"/>
<path d="M126.49 199.652L127.738 208.518L123.032 207.92L126.49 199.652Z" fill="#F49037"/>
<path d="M138.295 199.186L136.475 208.52L141.571 207.662L138.295 199.186Z" fill="#F49037"/>
<path d="M138.295 199.185L157.249 185.275L175.007 199.523L148.591 225.913L138.295 199.185Z" fill="#FFA242"/>
<path d="M136.447 211.926H127.737V272.272H136.447V211.926Z" fill="white"/>
<path d="M127.555 207.274L127.737 212.578C127.737 212.578 131.793 214.346 136.447 212.578L136.577 207.768L127.529 207.248L127.555 207.274Z" fill="#FFB69F"/>
<path d="M136.447 224.666H127.737V227.266H136.447V224.666Z" fill="#D6D6D6"/>
<path d="M136.447 236.392H127.737V238.992H136.447V236.392Z" fill="#D6D6D6"/>
<path d="M136.447 248.117H127.737V250.717H136.447V248.117Z" fill="#D6D6D6"/>
<path d="M136.447 259.843H127.737V262.443H136.447V259.843Z" fill="#D6D6D6"/>
<path d="M143.858 238.916C145.122 238.916 146.146 237.891 146.146 236.628C146.146 235.364 145.122 234.34 143.858 234.34C142.595 234.34 141.57 235.364 141.57 236.628C141.57 237.891 142.595 238.916 143.858 238.916Z" fill="#FFA242"/>
<path d="M143.858 264.444C145.122 264.444 146.146 263.42 146.146 262.156C146.146 260.893 145.122 259.868 143.858 259.868C142.595 259.868 141.57 260.893 141.57 262.156C141.57 263.42 142.595 264.444 143.858 264.444Z" fill="#FFA242"/>
</g>
<defs>
<clipPath id="clip0_706_209">
<rect width="260" height="260" rx="130" fill="white"/>
</clipPath>
</defs>
</svg>
